<svg width="300" height="300" viewBox="0 0 300 300" fill="none" xmlns="http://www.w3.org/2000/svg">
<path d="M98.512 127.691C101.658 127.691 104.398 128.408 106.73 129.842C109.09 131.276 110.921 133.238 112.223 135.727C113.525 138.189 114.176 141.017 114.176 144.209H81.6987C81.8449 141.53 82.5127 139.027 83.7023 136.701C85.0856 134.023 87.0386 131.858 89.5611 130.208C92.1107 128.53 95.0944 127.691 98.512 127.691Z" fill="white"/>
<path fill-rule="evenodd" clip-rule="evenodd" d="M150 300C66.8374 300 0 232.843 0 150C0 67.1573 67.4166 0 150.579 0L151 150L150 300ZM99.6712 188.279C93.7854 188.279 88.6726 189.646 84.3328 192.378C79.9931 195.111 76.6296 198.912 74.2427 203.782C71.8558 208.625 70.6624 214.213 70.6624 220.544C70.6624 226.794 71.8285 232.34 74.1612 237.184C76.4938 242.027 79.8304 245.828 84.1702 248.588C88.5371 251.32 93.7449 252.687 99.7935 252.687C104.73 252.687 109.029 251.78 112.691 249.968C116.38 248.155 119.323 245.666 121.52 242.5C123.717 239.334 125.032 235.736 125.466 231.704H113.627C113.111 233.95 112.202 235.871 110.901 237.468C109.626 239.064 108.039 240.295 106.14 241.161C104.269 241.999 102.18 242.419 99.8746 242.419C96.43 242.419 93.4329 241.513 90.8833 239.7C88.3608 237.887 86.4078 235.33 85.0245 232.029C83.6412 228.728 82.9494 224.805 82.9494 220.26C82.9494 215.823 83.6548 211.98 85.0653 208.734C86.4757 205.46 88.442 202.944 90.9645 201.185C93.5141 199.399 96.4842 198.507 99.8746 198.506C103.753 198.506 106.846 199.562 109.151 201.672C111.484 203.782 112.976 206.299 113.627 209.221H125.466C125.032 205.027 123.662 201.361 121.357 198.222C119.078 195.084 116.081 192.649 112.365 190.917C108.649 189.159 104.418 188.279 99.6712 188.279ZM98.4305 117.667C92.6259 117.667 87.5538 119.034 83.214 121.766C78.9013 124.499 75.5379 128.3 73.1238 133.17C70.7369 138.04 69.5435 143.668 69.5435 150.053C69.5435 156.52 70.737 162.161 73.1238 166.977C75.5379 171.766 78.9554 175.486 83.3766 178.138C87.8249 180.762 93.1277 182.074 99.2848 182.074C103.842 182.074 107.897 181.385 111.45 180.005C115.03 178.598 118 176.636 120.36 174.12C122.747 171.577 124.402 168.614 125.324 165.232L113.81 163.162C113.077 165.11 112.019 166.747 110.636 168.073C109.253 169.399 107.612 170.4 105.713 171.076C103.814 171.726 101.712 172.05 99.4071 172.05C95.8538 172.05 92.7479 171.292 90.0898 169.777C87.4317 168.235 85.3567 166.003 83.8649 163.081C82.5011 160.36 81.7727 157.1 81.6787 153.3H126.097V148.998C126.097 143.344 125.337 138.541 123.818 134.591C122.299 130.613 120.224 127.38 117.593 124.891C114.962 122.402 111.992 120.575 108.683 119.412C105.374 118.249 101.957 117.667 98.4305 117.667ZM99.6712 47.0548C93.7854 47.0548 88.6726 48.4213 84.3328 51.1539C79.9931 53.8866 76.6296 57.6878 74.2427 62.5578C71.8558 67.4008 70.6624 72.9881 70.6624 79.3192C70.6624 85.5692 71.8285 91.116 74.1612 95.959C76.4938 100.802 79.8304 104.604 84.1702 107.363C88.5371 110.096 93.7449 111.462 99.7935 111.462C104.73 111.462 109.029 110.556 112.691 108.743C116.38 106.93 119.323 104.441 121.52 101.276C123.717 98.1099 125.032 94.5113 125.466 90.4799H113.627C113.111 92.7256 112.202 94.6469 110.901 96.2432C109.626 97.8395 108.039 99.0705 106.14 99.9362C104.269 100.775 102.18 101.194 99.8746 101.194C96.43 101.194 93.4329 100.288 90.8833 98.4754C88.3608 96.6626 86.4078 94.1056 85.0245 90.8048C83.6412 87.5039 82.9494 83.5808 82.9494 79.0354C82.9494 74.5982 83.6548 70.7559 85.0653 67.5092C86.4757 64.2355 88.442 61.7192 90.9645 59.9605C93.5141 58.1749 96.4842 57.282 99.8746 57.282C103.753 57.282 106.846 58.3372 109.151 60.4476C111.484 62.558 112.976 65.0742 113.627 67.9963H125.466C125.032 63.8025 123.662 60.1363 121.357 56.9978C119.078 53.8594 116.081 51.4242 112.365 49.6927C108.649 47.934 104.418 47.0548 99.6712 47.0548Z" fill="white"/>
<path d="M150.25 1.63265C151.101 30.3951 154.118 36.383 168.788 14.0816L163.645 29.7699L155.14 40.8163L150.25 40.1911L148.124 26.2267L150.25 1.63265Z" fill="white"/>
<path d="M171.214 7.88265C175.433 -0.176684 187.609 2.40518 188.177 11.4796L189.987 40.3834C190.441 47.624 198.869 51.367 204.566 46.8583L227.311 28.8592C234.451 23.2086 244.522 30.5074 241.341 39.0278L231.209 66.1667C228.671 72.9653 234.844 79.8049 241.888 77.9974L270.004 70.782C278.832 68.5168 285.056 79.2713 278.676 85.7645L258.354 106.446C253.263 111.627 256.114 120.38 263.285 121.586L291.913 126.403C300.901 127.915 302.203 140.264 293.726 143.608L266.727 154.256C259.964 156.924 259 166.076 265.06 170.088L289.248 186.103C296.843 191.131 292.996 202.941 283.889 202.556L254.883 201.33C247.617 201.023 243.003 208.993 246.903 215.117L262.471 239.561C267.359 247.236 259.029 256.464 250.866 252.417L224.868 239.529C218.355 236.3 210.891 241.71 211.956 248.886L216.211 277.533C217.547 286.527 206.174 291.578 200.367 284.57L181.872 262.247C177.238 256.655 168.214 258.569 166.261 265.557L158.467 293.454C157.317 297.568 153.961 299.75 150.47 299.998C150.314 299.999 150.157 300 150 300V194.876C150.753 194.913 151.512 194.933 152.275 194.933C177.007 194.933 197.056 174.961 197.056 150.324C197.056 125.687 177.007 105.714 152.275 105.714C151.512 105.714 150.753 105.733 150 105.771V38.3729C153.079 38.3048 156.128 36.6991 157.775 33.5535L171.214 7.88265Z" fill="white"/>
</svg>
