<svg width="39" height="39" viewBox="0 0 39 39" fill="none" xmlns="http://www.w3.org/2000/svg">
<path d="M34.1998 20.664C33.9482 23.3875 32.926 25.983 31.253 28.1469C29.5801 30.3107 27.3254 31.9533 24.753 32.8825C22.1805 33.8117 19.3966 33.989 16.727 33.3937C14.0575 32.7985 11.6126 31.4553 9.6786 29.5212C7.74457 27.5872 6.40135 25.1424 5.80609 22.4728C5.21084 19.8032 5.38819 17.0193 6.31738 14.4469C7.24657 11.8744 8.88917 9.61979 11.053 7.9468C13.2168 6.27382 15.8123 5.25169 18.5358 5C16.9413 7.15723 16.174 9.81512 16.3735 12.4903C16.573 15.1654 17.726 17.6801 19.6229 19.577C21.5197 21.4738 24.0344 22.6269 26.7096 22.8263C29.3847 23.0258 32.0426 22.2585 34.1998 20.664Z" stroke="#EFEFEF" stroke-width="3.2" stroke-linecap="round" stroke-linejoin="round"/>
</svg>
